<svg width="32" height="32" viewBox="0 0 32 32" fill="none" xmlns="http://www.w3.org/2000/svg">
<path d="M16.0001 2.66663C13.363 2.66663 10.7851 3.44861 8.59248 4.9137C6.39983 6.37878 4.69086 8.46116 3.68169 10.8975C2.67253 13.3339 2.40848 16.0147 2.92295 18.6012C3.43742 21.1876 4.7073 23.5633 6.572 25.428C8.4367 27.2927 10.8125 28.5626 13.3989 29.0771C15.9853 29.5916 18.6662 29.3275 21.1025 28.3183C23.5389 27.3092 25.6213 25.6002 27.0863 23.4076C28.5514 21.2149 29.3334 18.637 29.3334 16C29.3266 12.4658 27.9197 9.07837 25.4207 6.57935C22.9217 4.08034 19.5342 2.6734 16.0001 2.66663ZM18.7437 19.8589C18.9442 20.0426 19.0636 20.2983 19.0757 20.57C19.0877 20.8417 18.9913 21.107 18.8078 21.3076C18.7122 21.4133 18.5955 21.4976 18.4651 21.555C18.3348 21.6124 18.1938 21.6417 18.0514 21.641C17.7955 21.6385 17.5494 21.5427 17.3591 21.3717L12.2309 16.7564C12.1259 16.6603 12.0421 16.5434 11.9848 16.4132C11.9275 16.283 11.8979 16.1422 11.8979 16C11.8979 15.8577 11.9275 15.7169 11.9848 15.5867C12.0421 15.4565 12.1259 15.3396 12.2309 15.2435L17.3591 10.6282C17.4578 10.5338 17.5743 10.4601 17.7019 10.4114C17.8295 10.3627 17.9655 10.34 18.102 10.3445C18.2385 10.3491 18.3727 10.3808 18.4967 10.438C18.6207 10.4951 18.7321 10.5764 18.8243 10.6771C18.9165 10.7778 18.9877 10.896 19.0336 11.0246C19.0796 11.1532 19.0993 11.2897 19.0918 11.426C19.0843 11.5624 19.0497 11.6958 18.9899 11.8186C18.9301 11.9414 18.8464 12.051 18.7437 12.141L14.4616 16L18.7437 19.8589Z" fill="#D5D7DC"/>
</svg>
