<svg width="60" height="60" viewBox="0 0 60 60" fill="none" xmlns="http://www.w3.org/2000/svg">
<path d="M17.8125 28.125C23.5079 28.125 28.125 23.5079 28.125 17.8125C28.125 12.1171 23.5079 7.5 17.8125 7.5C12.1171 7.5 7.5 12.1171 7.5 17.8125C7.5 23.5079 12.1171 28.125 17.8125 28.125Z" fill="#4CC3F8"/>
<path d="M42.1875 28.125C47.8829 28.125 52.5 23.5079 52.5 17.8125C52.5 12.1171 47.8829 7.5 42.1875 7.5C36.4921 7.5 31.875 12.1171 31.875 17.8125C31.875 23.5079 36.4921 28.125 42.1875 28.125Z" fill="#4CC3F8"/>
<path d="M17.8125 52.5C23.5079 52.5 28.125 47.8829 28.125 42.1875C28.125 36.4921 23.5079 31.875 17.8125 31.875C12.1171 31.875 7.5 36.4921 7.5 42.1875C7.5 47.8829 12.1171 52.5 17.8125 52.5Z" fill="#4CC3F8"/>
<path d="M48.75 40.3125H44.0625V35.625C44.0625 35.1277 43.865 34.6508 43.5133 34.2992C43.1617 33.9475 42.6848 33.75 42.1875 33.75C41.6902 33.75 41.2133 33.9475 40.8617 34.2992C40.51 34.6508 40.3125 35.1277 40.3125 35.625V40.3125H35.625C35.1277 40.3125 34.6508 40.51 34.2992 40.8617C33.9475 41.2133 33.75 41.6902 33.75 42.1875C33.75 42.6848 33.9475 43.1617 34.2992 43.5133C34.6508 43.865 35.1277 44.0625 35.625 44.0625H40.3125V48.75C40.3125 49.2473 40.51 49.7242 40.8617 50.0758C41.2133 50.4275 41.6902 50.625 42.1875 50.625C42.6848 50.625 43.1617 50.4275 43.5133 50.0758C43.865 49.7242 44.0625 49.2473 44.0625 48.75V44.0625H48.75C49.2473 44.0625 49.7242 43.865 50.0758 43.5133C50.4275 43.1617 50.625 42.6848 50.625 42.1875C50.625 41.6902 50.4275 41.2133 50.0758 40.8617C49.7242 40.51 49.2473 40.3125 48.75 40.3125Z" fill="#4CC3F8"/>
</svg>
