<svg width="40" height="40" viewBox="0 0 40 40" fill="none" xmlns="http://www.w3.org/2000/svg">
<path d="M34.6875 24.75L27.3594 21.625C26.9813 21.4555 26.5662 21.3853 26.1534 21.4208C25.7405 21.4563 25.3436 21.5965 25 21.8281L21.0781 24.4375C18.6879 23.2766 16.7526 21.3523 15.5781 18.9688L18.1719 15C18.4019 14.6561 18.5425 14.2601 18.5807 13.8481C18.6189 13.4361 18.5535 13.021 18.3906 12.6406L15.25 5.31251C15.0308 4.81769 14.6598 4.40554 14.1906 4.13583C13.7214 3.86612 13.1785 3.75287 12.6406 3.81251C10.5306 4.08893 8.59277 5.12216 7.18738 6.7201C5.78199 8.31805 5.00469 10.372 5 12.5C5 24.9063 15.0938 35 27.5 35C29.628 34.9953 31.682 34.218 33.2799 32.8126C34.8779 31.4072 35.9111 29.4694 36.1875 27.3594C36.2471 26.8215 36.1339 26.2786 35.8642 25.8094C35.5945 25.3402 35.1823 24.9692 34.6875 24.75Z" fill="#4CC3F8"/>
<path d="M24.5939 7.45314C26.4966 7.97296 28.2308 8.9799 29.6255 10.3746C31.0203 11.7693 32.0272 13.5036 32.547 15.4063C32.616 15.6734 32.7714 15.9102 32.989 16.0798C33.2066 16.2494 33.4743 16.3422 33.7501 16.3438C33.8612 16.3436 33.9716 16.3278 34.0783 16.2969C34.2372 16.2553 34.3862 16.1824 34.5165 16.0825C34.6469 15.9827 34.7561 15.8577 34.8375 15.7151C34.919 15.5725 34.9712 15.4151 34.9911 15.2521C35.011 15.089 34.9981 14.9236 34.9533 14.7656C34.3283 12.4355 33.1013 10.3107 31.3953 8.60481C29.6894 6.89889 27.5647 5.67184 25.2345 5.04689C25.0715 4.98749 24.8978 4.96269 24.7247 4.97407C24.5515 4.98545 24.3826 5.03276 24.2287 5.11299C24.0749 5.19322 23.9394 5.30461 23.8309 5.44007C23.7224 5.57553 23.6434 5.73209 23.5987 5.89978C23.5541 6.06748 23.5448 6.24263 23.5716 6.41409C23.5983 6.58555 23.6605 6.74957 23.7541 6.89569C23.8477 7.04181 23.9707 7.16683 24.1153 7.26281C24.2599 7.35878 24.4229 7.4236 24.5939 7.45314Z" fill="#4CC3F8"/>
<path d="M23.297 12.2813C24.3546 12.5708 25.3186 13.1308 26.094 13.9062C26.8694 14.6815 27.4294 15.6455 27.7189 16.7031C27.7854 16.9716 27.9402 17.2099 28.1583 17.3799C28.3765 17.5499 28.6454 17.6418 28.922 17.6406C29.028 17.6417 29.1335 17.6259 29.2345 17.5938C29.3948 17.5539 29.5455 17.4823 29.6776 17.3831C29.8097 17.2839 29.9206 17.1593 30.0036 17.0165C30.0867 16.8737 30.1402 16.7157 30.1611 16.5518C30.182 16.3879 30.1698 16.2216 30.1251 16.0625C29.7305 14.5774 28.9504 13.2229 27.8638 12.1363C26.7773 11.0497 25.4228 10.2696 23.9376 9.87501C23.7746 9.81561 23.601 9.79081 23.4278 9.80219C23.2546 9.81357 23.0857 9.86088 22.9319 9.94111C22.778 10.0213 22.6425 10.1327 22.534 10.2682C22.4256 10.4037 22.3465 10.5602 22.3018 10.7279C22.2572 10.8956 22.248 11.0708 22.2747 11.2422C22.3015 11.4137 22.3636 11.5777 22.4572 11.7238C22.5509 11.8699 22.6739 11.995 22.8185 12.0909C22.963 12.1869 23.126 12.2517 23.297 12.2813Z" fill="#4CC3F8"/>
</svg>
