<svg width="20" height="20" viewBox="0 0 20 20" fill="none" xmlns="http://www.w3.org/2000/svg">
<path d="M9.75098 0C7.82261 0 5.9374 0.571827 4.33375 1.64317C2.73009 2.71451 1.48002 4.23726 0.7416 6.01883C0.00318572 7.80041 -0.190403 9.76081 0.185314 11.6521C0.561031 13.5434 1.48918 15.2807 2.85239 16.6443C4.2156 18.0078 5.95264 18.9364 7.84386 19.3127C9.73508 19.6889 11.6955 19.4958 13.4773 18.7578C15.2591 18.0199 16.7821 16.7702 17.8539 15.1668C18.9256 13.5634 19.498 11.6784 19.4985 9.75C19.4942 7.16566 18.466 4.68859 16.6391 2.86118C14.8121 1.03378 12.3353 0.0049556 9.75098 0ZM14.3895 8.04375L8.89442 13.2937C8.75236 13.4274 8.56436 13.5012 8.36937 13.5C8.27406 13.5014 8.17943 13.4838 8.09094 13.4484C8.00245 13.413 7.92185 13.3605 7.8538 13.2937L5.1076 10.6687C5.03143 10.6023 4.96949 10.5211 4.9255 10.4301C4.88151 10.339 4.85639 10.24 4.85164 10.139C4.84689 10.038 4.8626 9.93713 4.89785 9.84235C4.93309 9.74758 4.98713 9.6609 5.05672 9.58753C5.12632 9.51417 5.21002 9.45562 5.3028 9.41543C5.39559 9.37523 5.49554 9.3542 5.59665 9.35361C5.69775 9.35303 5.79793 9.37289 5.89116 9.41201C5.98438 9.45113 6.06873 9.50869 6.13913 9.58125L8.36983 11.7094L13.3586 6.95625C13.5044 6.82902 13.6938 6.76308 13.8871 6.77223C14.0804 6.78138 14.2627 6.86489 14.3958 7.00532C14.529 7.14575 14.6026 7.33222 14.6015 7.52575C14.6003 7.71927 14.5244 7.90487 14.3895 8.04375Z" fill="white"/>
</svg>
