<svg width="137" height="17" viewBox="0 0 137 17" fill="none" xmlns="http://www.w3.org/2000/svg">
<path d="M0.5 16.819V0.180992H3.87065V16.819H0.5Z" fill="white"/>
<path d="M7.68197 16.819V0.180992H10.7753L16.7166 10.0227L18.7859 14.3558H18.0499L17.5699 8.76874V0.180992H20.6206V16.819H17.3139L11.6393 7.2796L9.26062 2.35312H10.1566L10.7113 8.41045V16.819H7.68197Z" fill="white"/>
<path d="M27.3392 16.819V2.86816H22.8272V0.180992H35.2112V2.86816H30.6992V16.819H27.3392Z" fill="white"/>
<path d="M40.7496 16.819H37.411V0.180992C37.5532 0.180992 37.6919 0.180992 37.827 0.180992C37.9692 0.180992 38.1079 0.180992 38.243 0.180992C38.3852 0.180992 38.5274 0.180992 38.6696 0.180992C39.2101 0.180992 39.8394 0.151134 40.5576 0.0914193C41.2759 0.0317043 42.1363 0.00184681 43.139 0.00184681C43.8785 0.00184681 44.5896 0.0876869 45.2723 0.259367C45.9549 0.423584 46.5629 0.699765 47.0963 1.08791C47.6367 1.46859 48.0634 1.98363 48.3763 2.63303C48.6892 3.28243 48.8456 4.08858 48.8456 5.05149C48.8456 6.13382 48.6749 7.03327 48.3336 7.74985C47.9923 8.45897 47.5123 9.01506 46.8936 9.41814C46.2821 9.81375 45.5638 10.0787 44.739 10.2131C44.4545 10.2579 44.1665 10.3027 43.875 10.3474C43.5834 10.3848 43.1994 10.4184 42.723 10.4482C42.2465 10.4706 41.5887 10.4818 40.7496 10.4818V16.819ZM40.7496 8.01857C40.899 8.04096 41.1087 8.05962 41.379 8.07455C41.6492 8.08948 41.923 8.09694 42.2003 8.09694C42.4847 8.09694 42.7123 8.09694 42.883 8.09694C43.7861 8.09694 44.4616 7.83196 44.9096 7.30199C45.3647 6.76456 45.5923 6.04425 45.5923 5.14106C45.5923 4.63348 45.5069 4.18189 45.3363 3.78628C45.1727 3.3832 44.8812 3.0697 44.4616 2.84577C44.0421 2.61437 43.4554 2.49868 42.7016 2.49868C42.3674 2.49868 42.0296 2.51734 41.6883 2.55466C41.347 2.58451 41.0341 2.63303 40.7496 2.70021V8.01857ZM46.2323 16.819C46.1398 16.6922 46.0581 16.5503 45.9869 16.3936C45.9229 16.2294 45.8127 15.9681 45.6563 15.6098C45.4358 15.1097 45.2296 14.5685 45.0376 13.9863C44.8527 13.4041 44.6572 12.848 44.451 12.318C44.2447 11.7881 44.0065 11.3477 43.7363 10.9968C43.4661 10.646 43.139 10.4557 42.755 10.4258L43.6936 9.65326L45.7736 9.50771C46.1789 9.69432 46.5345 10.0153 46.8403 10.4706C47.1532 10.9185 47.4376 11.4372 47.6936 12.0269C47.9567 12.6166 48.2127 13.225 48.4616 13.852C48.7176 14.479 48.9914 15.0612 49.2829 15.5986C49.3896 15.8076 49.4963 16.0129 49.6029 16.2144C49.7167 16.416 49.8269 16.6175 49.9336 16.819H46.2323Z" fill="white"/>
<path d="M53.9087 16.819H50.3994L56.1381 0.0354367H59.7434L65.4714 16.819H61.9087L58.3994 5.04029L57.9087 3.11448L57.4074 5.04029L53.9087 16.819ZM53.6527 13.2921L54.0901 10.7953H61.3647L61.802 13.2921H53.6527Z" fill="white"/>
<path d="M65.8182 8.54481C65.8182 7.14897 66.0209 5.92108 66.4262 4.86114C66.8315 3.79374 67.3933 2.90175 68.1115 2.18517C68.8297 1.46113 69.6582 0.916231 70.5968 0.550477C71.5426 0.184724 72.5524 0.00184681 73.6261 0.00184681C74.387 0.00184681 75.0235 0.0466328 75.5355 0.136205C76.0546 0.218313 76.4883 0.311618 76.8368 0.416119C77.1923 0.513156 77.5088 0.591532 77.7861 0.651246L77.3381 3.6967C77.203 3.60713 76.9968 3.49143 76.7195 3.34961C76.4492 3.20032 76.0795 3.0697 75.6101 2.95773C75.1479 2.8383 74.5684 2.77859 73.8715 2.77859C72.9684 2.77859 72.1684 2.99879 71.4715 3.43918C70.7746 3.87958 70.2271 4.51405 69.8288 5.3426C69.4306 6.17114 69.2315 7.17136 69.2315 8.34327C69.2315 9.51517 69.4128 10.5453 69.7755 11.4335C70.1453 12.3218 70.6857 13.0197 71.3968 13.5273C72.1079 14.0274 72.9755 14.2774 73.9995 14.2774C74.4759 14.2774 74.9595 14.2214 75.4501 14.1095C75.9408 13.9975 76.3781 13.8632 76.7621 13.7064C77.1461 13.5422 77.4306 13.3817 77.6155 13.225V16.1249C77.331 16.2443 77.0039 16.3712 76.6341 16.5055C76.2644 16.6399 75.8377 16.7556 75.3541 16.8526C74.8777 16.9497 74.323 16.9982 73.6901 16.9982C72.0404 16.9982 70.6288 16.6511 69.4555 15.9569C68.2822 15.2553 67.3826 14.27 66.7568 13.001C66.1311 11.7321 65.8182 10.2467 65.8182 8.54481Z" fill="white"/>
<path d="M80.3691 16.819V0.180992H83.6758V14.0087H89.4037V16.819H80.3691Z" fill="white"/>
<path d="M97.55 16.9982C96.0283 17.028 94.7198 16.6884 93.6247 15.9793C92.5296 15.2627 91.6976 14.255 91.1287 12.9562C90.5598 11.65 90.2896 10.131 90.3181 8.39925C90.3536 6.48091 90.7021 4.90966 91.3634 3.68551C92.0247 2.45389 92.9172 1.5395 94.0407 0.942356C95.1643 0.345208 96.4371 0.0317047 97.8594 0.00184681C99.3171 -0.0280102 100.576 0.304154 101.635 0.998338C102.702 1.68506 103.516 2.67035 104.078 3.95422C104.647 5.23063 104.914 6.73843 104.878 8.47763C104.842 10.396 104.508 11.9821 103.875 13.2362C103.242 14.4827 102.382 15.4157 101.294 16.0353C100.206 16.6474 98.958 16.9683 97.55 16.9982ZM97.614 14.423C98.8016 14.423 99.7438 13.9341 100.441 12.9562C101.138 11.9784 101.486 10.4482 101.486 8.36566C101.486 7.27586 101.347 6.29803 101.07 5.43217C100.8 4.5663 100.391 3.88331 99.8433 3.3832C99.2958 2.87563 98.6096 2.62184 97.7847 2.62184C97.0451 2.62184 96.366 2.81591 95.7474 3.20406C95.1358 3.5922 94.6451 4.21921 94.2754 5.08507C93.9056 5.95094 93.7207 7.10045 93.7207 8.53361C93.7207 9.63087 93.8665 10.6236 94.158 11.5119C94.4496 12.4001 94.8834 13.1093 95.4594 13.6392C96.0354 14.1617 96.7536 14.423 97.614 14.423Z" fill="white"/>
<path d="M113.774 16.9982C112.21 16.9982 110.955 16.7071 110.009 16.1249C109.063 15.5352 108.377 14.7066 107.95 13.6392C107.531 12.5644 107.321 11.2992 107.321 9.8436L107.353 0.180992H110.681L110.638 9.33976C110.638 10.646 110.755 11.6537 110.99 12.3628C111.232 13.0645 111.584 13.5534 112.046 13.8296C112.515 14.0983 113.088 14.2326 113.763 14.2326C114.411 14.2326 114.958 14.0946 115.406 13.8184C115.854 13.5347 116.192 13.0383 116.419 12.3292C116.654 11.6201 116.771 10.6236 116.771 9.33976V0.180992H120.067V9.89959C120.067 12.1464 119.559 13.893 118.542 15.1396C117.525 16.3786 115.936 16.9982 113.774 16.9982Z" fill="white"/>
<path d="M123.348 16.819V0.180992C123.505 0.180992 123.657 0.180992 123.807 0.180992C123.963 0.180992 124.116 0.180992 124.265 0.180992C124.415 0.180992 124.564 0.180992 124.713 0.180992C125.012 0.180992 125.389 0.166063 125.844 0.136205C126.299 0.106348 126.786 0.0764908 127.305 0.0466337C127.824 0.0167758 128.326 0.00184681 128.809 0.00184681C131.448 0.00184681 133.389 0.707229 134.633 2.11799C135.878 3.52876 136.5 5.50681 136.5 8.05216C136.5 9.9481 136.184 11.5679 135.551 12.9115C134.918 14.2476 134.008 15.2665 132.82 15.9681C131.64 16.6698 130.221 17.0131 128.564 16.9982C127.881 16.9833 127.195 16.9497 126.505 16.8974C125.816 16.8452 125.176 16.819 124.585 16.819C124.45 16.819 124.312 16.819 124.169 16.819C124.034 16.819 123.896 16.819 123.753 16.819C123.618 16.819 123.483 16.819 123.348 16.819ZM126.697 14.2103C126.968 14.2849 127.298 14.3371 127.689 14.367C128.08 14.3969 128.468 14.4081 128.852 14.4006C129.684 14.3931 130.413 14.1804 131.039 13.7624C131.664 13.3444 132.152 12.6987 132.5 11.8254C132.856 10.9446 133.033 9.81001 133.033 8.42164C133.033 6.97356 132.866 5.82031 132.532 4.96191C132.198 4.10351 131.696 3.4877 131.028 3.11448C130.36 2.7338 129.52 2.54346 128.511 2.54346C128.184 2.54346 127.853 2.55839 127.519 2.58825C127.184 2.6181 126.911 2.65543 126.697 2.70021V14.2103Z" fill="white"/>
</svg>
