<svg width="190" height="23" viewBox="0 0 190 23" fill="none" xmlns="http://www.w3.org/2000/svg">
<path d="M0 22.7552V0.244871H4.709V22.7552H0Z" fill="white"/>
<path d="M10.0336 22.7552V0.244871H14.3552L22.6555 13.5602L25.5465 19.4226H24.5183L23.8477 11.8636V0.244871H28.1096V22.7552H23.49L15.5622 9.84887L12.2391 3.18363H13.4909L14.2658 11.3788V22.7552H10.0336Z" fill="white"/>
<path d="M37.4959 22.7552V3.88045H31.1924V0.244871H48.4935V3.88045H42.19V22.7552H37.4959Z" fill="white"/>
<path d="M56.2311 22.7552H51.5668V0.244871C51.7655 0.244871 51.9592 0.244871 52.148 0.244871C52.3467 0.244871 52.5404 0.244871 52.7292 0.244871C52.9279 0.244871 53.1265 0.244871 53.3252 0.244871C54.0803 0.244871 54.9595 0.204476 55.9629 0.123685C56.9663 0.0428941 58.1684 0.00249862 59.5691 0.00249862C60.6023 0.00249862 61.5958 0.118635 62.5495 0.350909C63.5032 0.573084 64.3526 0.946741 65.0977 1.47188C65.8528 1.98692 66.4488 2.68374 66.886 3.56234C67.3231 4.44094 67.5416 5.53161 67.5416 6.83436C67.5416 8.29869 67.3032 9.5156 66.8263 10.4851C66.3495 11.4445 65.6789 12.1968 64.8146 12.7422C63.9602 13.2774 62.9568 13.6359 61.8044 13.8177C61.407 13.8783 61.0047 13.9389 60.5974 13.9995C60.19 14.05 59.6536 14.0954 58.988 14.1358C58.3223 14.1661 57.4034 14.1813 56.2311 14.1813V22.7552ZM56.2311 10.8487C56.4397 10.8789 56.7328 10.9042 57.1103 10.9244C57.4878 10.9446 57.8703 10.9547 58.2578 10.9547C58.6551 10.9547 58.9731 10.9547 59.2115 10.9547C60.4732 10.9547 61.417 10.5962 62.0428 9.87916C62.6787 9.15205 62.9966 8.17751 62.9966 6.95555C62.9966 6.26883 62.8773 5.65785 62.6389 5.12261C62.4104 4.57727 62.0031 4.15312 61.417 3.85016C60.8308 3.53709 60.0112 3.38056 58.9582 3.38056C58.4912 3.38056 58.0193 3.40581 57.5425 3.4563C57.0656 3.4967 56.6285 3.56234 56.2311 3.65323V10.8487ZM63.8907 22.7552C63.7615 22.5835 63.6473 22.3916 63.5479 22.1795C63.4585 21.9574 63.3045 21.6039 63.086 21.1192C62.778 20.4425 62.4899 19.7104 62.2217 18.9227C61.9634 18.135 61.6902 17.3826 61.4021 16.6656C61.114 15.9486 60.7811 15.3527 60.4036 14.8781C60.0261 14.4034 59.5691 14.1459 59.0327 14.1055L60.344 13.0603L63.2499 12.8634C63.8162 13.1158 64.3129 13.5501 64.7401 14.1661C65.1772 14.772 65.5746 15.4739 65.9322 16.2717C66.2998 17.0695 66.6575 17.8926 67.0052 18.7409C67.3628 19.5892 67.7453 20.3769 68.1526 21.104C68.3016 21.3868 68.4507 21.6645 68.5997 21.9372C68.7586 22.2098 68.9126 22.4825 69.0616 22.7552H63.8907Z" fill="white"/>
<path d="M74.6152 22.7552H69.7124L77.7296 0.0479437H82.7665L90.7688 22.7552H85.7916L80.8888 6.81921L80.2034 4.21371L79.503 6.81921L74.6152 22.7552ZM74.2575 17.9835L74.8685 14.6054H85.0316L85.6425 17.9835H74.2575Z" fill="white"/>
<path d="M91.2533 11.5606C91.2533 9.67214 91.5365 8.01088 92.1027 6.57684C92.669 5.13271 93.4538 3.9259 94.4572 2.95641C95.4606 1.97682 96.618 1.23961 97.9294 0.744764C99.2507 0.24992 100.661 0.00249862 102.162 0.00249862C103.225 0.00249862 104.114 0.0630915 104.829 0.184277C105.554 0.295365 106.16 0.421601 106.647 0.562985C107.144 0.69427 107.586 0.800307 107.973 0.881097L107.347 5.00142C107.159 4.88024 106.871 4.72371 106.483 4.53183C106.106 4.32985 105.589 4.15312 104.933 4.00164C104.288 3.84006 103.478 3.75927 102.504 3.75927C101.243 3.75927 100.125 4.05718 99.1513 4.65301C98.1777 5.24885 97.4128 6.10725 96.8564 7.22822C96.3001 8.34919 96.0219 9.70243 96.0219 11.288C96.0219 12.8735 96.2753 14.2671 96.7819 15.4689C97.2985 16.6706 98.0536 17.6149 99.047 18.3016C100.04 18.9782 101.253 19.3165 102.683 19.3165C103.349 19.3165 104.024 19.2408 104.71 19.0893C105.395 18.9378 106.006 18.756 106.543 18.544C107.079 18.3218 107.477 18.1047 107.735 17.8926V21.816C107.337 21.9776 106.88 22.1493 106.364 22.331C105.847 22.5128 105.251 22.6693 104.576 22.8006C103.91 22.9319 103.135 22.9976 102.251 22.9976C99.9461 22.9976 97.9741 22.528 96.3349 21.5888C94.6957 20.6395 93.4389 19.3064 92.5647 17.5896C91.6905 15.8728 91.2533 13.8632 91.2533 11.5606Z" fill="white"/>
<path d="M111.582 22.7552V0.244871H116.201V18.953H124.204V22.7552H111.582Z" fill="white"/>
<path d="M135.585 22.9976C133.459 23.0379 131.631 22.5785 130.101 21.6191C128.571 20.6496 127.408 19.2862 126.614 17.529C125.819 15.7617 125.441 13.7066 125.481 11.3637C125.531 8.76829 126.018 6.64248 126.941 4.98627C127.865 3.31997 129.112 2.08286 130.682 1.27495C132.252 0.467046 134.03 0.0428947 136.017 0.00249862C138.053 -0.0378962 139.812 0.411502 141.292 1.35069C142.782 2.27979 143.92 3.61283 144.705 5.34983C145.499 7.07673 145.872 9.1167 145.822 11.4697C145.773 14.0651 145.306 16.2111 144.421 17.9077C143.537 19.5942 142.335 20.8566 140.815 21.6948C139.295 22.5229 137.552 22.9572 135.585 22.9976ZM135.674 19.5135C137.333 19.5135 138.649 18.852 139.623 17.529C140.597 16.2061 141.083 14.1358 141.083 11.3182C141.083 9.84382 140.89 8.52087 140.502 7.3494C140.125 6.17794 139.553 5.25389 138.788 4.57727C138.024 3.89055 137.065 3.54719 135.912 3.54719C134.879 3.54719 133.93 3.80976 133.066 4.3349C132.212 4.86004 131.526 5.70834 131.01 6.87981C130.493 8.05127 130.235 9.60649 130.235 11.5455C130.235 13.03 130.438 14.3731 130.846 15.5749C131.253 16.7767 131.859 17.7361 132.664 18.4531C133.469 19.16 134.472 19.5135 135.674 19.5135Z" fill="white"/>
<path d="M158.251 22.9976C156.065 22.9976 154.312 22.6037 152.99 21.816C151.669 21.0182 150.71 19.8972 150.114 18.4531C149.528 16.9988 149.235 15.2871 149.235 13.3178L149.28 0.244871H153.929L153.869 12.6361C153.869 14.4034 154.033 15.7668 154.361 16.7262C154.699 17.6755 155.191 18.3369 155.836 18.7106C156.492 19.0742 157.292 19.2559 158.236 19.2559C159.14 19.2559 159.905 19.0691 160.531 18.6954C161.156 18.3117 161.628 17.6401 161.946 16.6807C162.274 15.7213 162.438 14.3731 162.438 12.6361V0.244871H167.043V13.3936C167.043 16.4333 166.332 18.7964 164.912 20.4829C163.491 22.1593 161.271 22.9976 158.251 22.9976Z" fill="white"/>
<path d="M171.626 22.7552V0.244871C171.845 0.244871 172.058 0.244871 172.267 0.244871C172.485 0.244871 172.699 0.244871 172.908 0.244871C173.116 0.244871 173.325 0.244871 173.533 0.244871C173.951 0.244871 174.477 0.224673 175.113 0.184277C175.749 0.143882 176.429 0.103487 177.155 0.0630927C177.88 0.0226966 178.58 0.00249862 179.256 0.00249862C182.941 0.00249862 185.654 0.956839 187.392 2.86552C189.131 4.7742 190 7.45039 190 10.8941C190 13.4592 189.558 15.6506 188.674 17.4684C187.79 19.2761 186.518 20.6546 184.859 21.6039C183.21 22.5532 181.228 23.0177 178.913 22.9976C177.959 22.9774 177.001 22.9319 176.037 22.8612C175.073 22.7905 174.179 22.7552 173.355 22.7552C173.166 22.7552 172.972 22.7552 172.773 22.7552C172.585 22.7552 172.391 22.7552 172.192 22.7552C172.003 22.7552 171.815 22.7552 171.626 22.7552ZM176.305 19.2256C176.683 19.3266 177.145 19.3973 177.691 19.4377C178.237 19.4781 178.779 19.4933 179.315 19.4832C180.478 19.4731 181.496 19.1852 182.37 18.6197C183.244 18.0542 183.925 17.1806 184.412 15.9991C184.909 14.8074 185.157 13.2724 185.157 11.394C185.157 9.43481 184.923 7.87454 184.456 6.71318C183.99 5.55181 183.289 4.71866 182.355 4.21371C181.421 3.69867 180.249 3.44115 178.838 3.44115C178.381 3.44115 177.92 3.46135 177.453 3.50175C176.986 3.54214 176.603 3.59264 176.305 3.65323V19.2256Z" fill="white"/>
</svg>
