<svg width="60" height="60" viewBox="0 0 60 60" fill="none" xmlns="http://www.w3.org/2000/svg">
<path d="M58.1254 35.625C58.1254 36.1223 57.9279 36.5992 57.5763 36.9508C57.2246 37.3025 56.7477 37.5 56.2504 37.5H52.5004V41.25C52.5004 41.7473 52.3029 42.2242 51.9513 42.5758C51.5996 42.9275 51.1227 43.125 50.6254 43.125C50.1281 43.125 49.6512 42.9275 49.2996 42.5758C48.948 42.2242 48.7504 41.7473 48.7504 41.25V37.5H45.0004C44.5031 37.5 44.0262 37.3025 43.6746 36.9508C43.323 36.5992 43.1254 36.1223 43.1254 35.625C43.1254 35.1277 43.323 34.6508 43.6746 34.2992C44.0262 33.9475 44.5031 33.75 45.0004 33.75H48.7504V30C48.7504 29.5027 48.948 29.0258 49.2996 28.6742C49.6512 28.3225 50.1281 28.125 50.6254 28.125C51.1227 28.125 51.5996 28.3225 51.9513 28.6742C52.3029 29.0258 52.5004 29.5027 52.5004 30V33.75H56.2504C56.7477 33.75 57.2246 33.9475 57.5763 34.2992C57.9279 34.6508 58.1254 35.1277 58.1254 35.625ZM15.0004 15.9375H17.8129V18.75C17.8129 19.2473 18.0105 19.7242 18.3621 20.0758C18.7137 20.4275 19.1906 20.625 19.6879 20.625C20.1852 20.625 20.6621 20.4275 21.0137 20.0758C21.3654 19.7242 21.5629 19.2473 21.5629 18.75V15.9375H24.3754C24.8727 15.9375 25.3496 15.74 25.7012 15.3883C26.0529 15.0367 26.2504 14.5598 26.2504 14.0625C26.2504 13.5652 26.0529 13.0883 25.7012 12.7367C25.3496 12.385 24.8727 12.1875 24.3754 12.1875H21.5629V9.375C21.5629 8.87772 21.3654 8.40081 21.0137 8.04918C20.6621 7.69755 20.1852 7.5 19.6879 7.5C19.1906 7.5 18.7137 7.69755 18.3621 8.04918C18.0105 8.40081 17.8129 8.87772 17.8129 9.375V12.1875H15.0004C14.5031 12.1875 14.0262 12.385 13.6746 12.7367C13.323 13.0883 13.1254 13.5652 13.1254 14.0625C13.1254 14.5598 13.323 15.0367 13.6746 15.3883C14.0262 15.74 14.5031 15.9375 15.0004 15.9375ZM43.1254 45H41.2504V43.125C41.2504 42.6277 41.0529 42.1508 40.7012 41.7992C40.3496 41.4475 39.8727 41.25 39.3754 41.25C38.8781 41.25 38.4012 41.4475 38.0496 41.7992C37.698 42.1508 37.5004 42.6277 37.5004 43.125V45H35.6254C35.1281 45 34.6512 45.1975 34.2996 45.5492C33.948 45.9008 33.7504 46.3777 33.7504 46.875C33.7504 47.3723 33.948 47.8492 34.2996 48.2008C34.6512 48.5525 35.1281 48.75 35.6254 48.75H37.5004V50.625C37.5004 51.1223 37.698 51.5992 38.0496 51.9508C38.4012 52.3025 38.8781 52.5 39.3754 52.5C39.8727 52.5 40.3496 52.3025 40.7012 51.9508C41.0529 51.5992 41.2504 51.1223 41.2504 50.625V48.75H43.1254C43.6227 48.75 44.0996 48.5525 44.4512 48.2008C44.8029 47.8492 45.0004 47.3723 45.0004 46.875C45.0004 46.3777 44.8029 45.9008 44.4512 45.5492C44.0996 45.1975 43.6227 45 43.1254 45ZM42.5864 27.5859L17.6489 52.5C17.3023 52.8501 16.8899 53.128 16.4353 53.3176C15.9807 53.5073 15.493 53.6049 15.0004 53.6049C14.5079 53.6049 14.0202 53.5073 13.5656 53.3176C13.111 53.128 12.6985 52.8501 12.352 52.5L7.50042 47.6484C7.15036 47.3019 6.87246 46.8894 6.68281 46.4348C6.49316 45.9802 6.39551 45.4926 6.39551 45C6.39551 44.5074 6.49316 44.0198 6.68281 43.5652C6.87246 43.1106 7.15036 42.6981 7.50042 42.3516L42.352 7.5C43.058 6.80437 44.0093 6.41443 45.0004 6.41443C45.9915 6.41443 46.9429 6.80437 47.6489 7.5L52.5004 12.3516C52.8505 12.6981 53.1284 13.1106 53.318 13.5652C53.5077 14.0198 53.6053 14.5074 53.6053 15C53.6053 15.4926 53.5077 15.9802 53.318 16.4348C53.1284 16.8894 52.8505 17.3019 52.5004 17.6484L42.5864 27.5859ZM36.3989 18.75L41.2504 23.6016L49.852 15L45.0004 10.1484L36.3989 18.75Z" fill="#4CC3F8"/>
</svg>
