<svg width="60" height="60" viewBox="0 0 60 60" fill="none" xmlns="http://www.w3.org/2000/svg">
<path d="M28.0777 50.3438C27.974 50.7507 27.7383 51.1118 27.4075 51.3705C27.0767 51.6292 26.6695 51.7709 26.2495 51.7735C26.0984 51.773 25.9482 51.7493 25.8042 51.7032L18.7261 49.9453C18.152 49.8004 17.6213 49.519 17.1792 49.125L11.9058 44.5313C11.7211 44.3712 11.5698 44.1764 11.4604 43.9578C11.3511 43.7393 11.2858 43.5014 11.2684 43.2576C11.251 43.0139 11.2818 42.7691 11.3589 42.5372C11.4361 42.3053 11.5583 42.091 11.7183 41.9063C11.8783 41.7216 12.0732 41.5703 12.2917 41.4609C12.5103 41.3515 12.7482 41.2863 12.992 41.2689C13.2357 41.2515 13.4805 41.2822 13.7124 41.3594C13.9442 41.4366 14.1586 41.5587 14.3433 41.7188L19.6402 46.3125L26.6949 48.0703C27.1773 48.1924 27.5926 48.499 27.8512 48.9242C28.1099 49.3495 28.1912 49.8592 28.0777 50.3438ZM59.1558 28.0313C59.0017 28.5033 58.7542 28.9395 58.428 29.314C58.1019 29.6885 57.7038 29.9935 57.2574 30.211L51.7964 32.9532L48.3042 37.0547H48.2574C48.2574 37.0782 48.2339 37.0782 48.2339 37.1016H48.2105L39.5855 45.7266C38.8707 46.4253 37.9131 46.8201 36.9136 46.8282C36.6131 46.8254 36.314 46.786 36.023 46.711L22.4292 43.3594C21.916 43.2397 21.4357 43.0075 21.023 42.6797L8.36674 32.7891L2.74174 29.9766C1.84322 29.5212 1.16091 28.7294 0.843302 27.7735C0.693148 27.2998 0.638617 26.8011 0.682876 26.3062C0.727134 25.8113 0.8693 25.3301 1.10111 24.8907L6.86674 13.8516C7.32238 12.9829 8.0984 12.3257 9.03032 12.0195C9.96223 11.7132 10.9768 11.7819 11.8589 12.211L17.1089 14.836L28.523 11.5078C29.3786 11.2747 30.2882 11.3408 31.1011 11.6953L38.8355 15.211H42.6792L48.1402 12.4688C49.0185 12.0318 50.033 11.9564 50.9663 12.2587C51.8995 12.561 52.6771 13.217 53.1324 14.086L58.898 25.125C59.1305 25.5685 59.2729 26.0536 59.3172 26.5524C59.3614 27.0512 59.3066 27.5538 59.1558 28.0313ZM43.9917 36.0469L36.5855 30.6563L34.687 32.086C33.0612 33.2959 31.0887 33.9493 29.062 33.9493C27.0354 33.9493 25.0629 33.2959 23.437 32.086L22.1714 31.125C21.739 30.8048 21.3811 30.3948 21.1223 29.9231C20.8635 29.4514 20.7098 28.9292 20.672 28.3925C20.6341 27.8558 20.7129 27.3173 20.903 26.8139C21.093 26.3106 21.3898 25.8543 21.773 25.4766L30.937 16.2891L31.3589 15.9375L29.5542 15.1172L18.1402 18.4453L11.7652 30.6797L23.3433 39.7266L36.9136 43.125L43.9917 36.0469ZM48.3745 31.1953L41.9995 18.961H33.5855L24.4214 28.125L25.687 29.086C26.6652 29.8056 27.8477 30.1937 29.062 30.1937C30.2764 30.1937 31.4589 29.8056 32.437 29.086L35.437 26.836C35.757 26.5946 36.1458 26.4622 36.5465 26.4579C36.9472 26.4537 37.3387 26.578 37.6636 26.8125L46.5699 33.2813L48.3745 31.1953Z" fill="#4CC3F8"/>
</svg>
