<svg width="60" height="60" viewBox="0 0 60 60" fill="none" xmlns="http://www.w3.org/2000/svg">
<path d="M54.9999 30C55.0061 30.8471 54.7485 31.6751 54.2629 32.369C53.7773 33.063 53.0877 33.5885 52.29 33.8727L38.8178 38.8297L33.8625 52.3066C33.5692 53.0972 33.041 53.779 32.349 54.2605C31.6569 54.7419 30.8342 55 29.9912 55C29.1482 55 28.3255 54.7419 27.6334 54.2605C26.9414 53.779 26.4132 53.0972 26.1199 52.3066L21.1646 38.8297L7.69243 33.8727C6.90216 33.5792 6.22059 33.0509 5.73928 32.3586C5.25798 31.6663 5 30.8433 5 30C5 29.1567 5.25798 28.3337 5.73928 27.6414C6.22059 26.9491 6.90216 26.4208 7.69243 26.1273L21.1646 21.1703L26.1199 7.69338C26.4132 6.90283 26.9414 6.22102 27.6334 5.73954C28.3255 5.25807 29.1482 5 29.9912 5C30.8342 5 31.6569 5.25807 32.349 5.73954C33.041 6.22102 33.5692 6.90283 33.8625 7.69338L38.8178 21.1703L52.29 26.1273C53.0877 26.4115 53.7773 26.937 54.2629 27.631C54.7485 28.3249 55.0061 29.1529 54.9999 30Z" fill="#4CC3F8"/>
</svg>
